<?xml version="1.0" standalone="no"?> <!DOCTYPE svg PUBLIC "-//W3C//DTD SVG 1.0//EN" "http://www.w3.org/TR/2001/REC-SVG-20010904/DTD/svg10.dtd" > <svg xmlns="http://www.w3.org/2000/svg" width="100%" height="100%">
<defs >
<font id="palscri" horiz-adv-x="459" ><font-face
    font-family="Palace Script MT"
    units-per-em="2048"
    panose-1="3 3 3 2 2 6 7 12 11 5"
    ascent="1401"
    descent="-496"
    alphabetic="0" />
<missing-glyph horiz-adv-x="1024" d="M82 1365H942V0H82V1365ZM123 1324V41H901V1324H123Z" />
<glyph unicode=" " glyph-name="space" horiz-adv-x="320" />
<glyph unicode="!" glyph-name="exclam" horiz-adv-x="330" d="M6 135H-14Q143 312 354 573Q402 634 424 663T457 701T485 711Q506 711 506 686Q506 671 483 644T395 551Q372 527 315 469T203 350L6 135ZM-86 51Q-86 64 -73 78T-47 92Q-33 92 -33 76Q-33 65 -44
51T-70 37Q-86 37 -86 51Z" />
<glyph unicode="&quot;" glyph-name="quotedbl" horiz-adv-x="426" d="M354 389L367 567Q373 654 385 697T432 741Q467 741 467 698Q467 681 463 667T430 567L373 389H354ZM184 389L199 567Q205 654 217 697T264 741Q297 741 297 698Q297 670 262 567L203 389H184Z" />
<glyph unicode="#" glyph-name="numbersign" horiz-adv-x="874" d="M84 489H289L342 741H385L332 489H614L668 741H711L659 489H791V446H649L596 195H791V152H588L537 -100H492L543 152H260L209 -100H164L217 152H84V195H225L279 446H84V489ZM604 446H324L270
195H553L604 446Z" />
<glyph unicode="$" glyph-name="dollar" horiz-adv-x="641" d="M301 379Q293 479 327 545T419 639T537 657L614 750L625 739L555 653Q591 646 635 602L713 690L723 680L647 592Q643 592 649 586Q668 563 668 514Q668 467 637 437T569 406Q544 406 510 428L387
281Q406 95 329 37T133 -16L43 -121L33 -109L113 -14Q54 0 25 31L-43 -49L-53 -37L12 41Q-8 74 -6 121Q-4 150 9 177T46 223T100 242Q119 242 138 234T164 217L301 379ZM549 502L625 588Q589 626 539 635L365 428L383 301L500 440Q498 447 498 451T496 459Q498
478 512 491T549 502ZM635 575L561 492Q574 474 569 455T537 428Q553 420 565 420Q588 420 608 432T640 468T653 514Q653 550 635 575ZM125 -2L328 236Q311 319 307 362L172 205Q174 197 174 186Q174 170 159 156T123 145L35 45Q64 12 125 -2ZM25 55L113 158Q102
168 102 180Q102 208 135 219Q124 227 96 227Q60 227 34 190T8 121Q8 75 25 55ZM358 446L522 639Q440 639 399 591T358 446ZM334 217L145 -2Q191 -5 229 9T294 53T330 124T334 217Z" />
<glyph unicode="%" glyph-name="percent" horiz-adv-x="768" d="M567 729Q507 729 389 608Q332 549 306 513T279 455Q279 426 317 426Q360 426 431 470T555 576T608 684Q608 704 597 716T567 729ZM-4 98L838 666Q800 655 758 655Q674 655 623 692Q623 644 593
593T512 501T410 436T311 412Q281 412 263 433T244 489Q244 538 279 586T367 669T471 724T559 743Q591 743 627 711Q682 670 758 670Q790 670 872 690L881 678L4 86L-4 98ZM524 299Q489 299 420 246T292 126T233 29Q233 17 246 8T274 -2Q314 -2 384 43T510 149T565
260Q565 279 554 289T524 299ZM516 313Q548 313 566 299T584 260Q584 197 528 133T396 26T266 -16Q236 -16 219 4T201 61Q201 126 257 184T388 278T516 313Z" />
<glyph unicode="&amp;" glyph-name="ampersand" horiz-adv-x="662" d="M264 330Q364 360 410 389T457 463Q457 477 451 487T435 504T410 510Q356 510 314 459T264 330ZM260 131Q248 229 248 309Q127 271 68 201T8 88Q8 41 59 41Q143 41 260 131ZM203 315L248 330Q254
407 302 465T410 524Q436 524 453 508T471 465Q471 367 262 313Q268 257 270 216T276 147Q336 207 360 236Q385 266 409 291T463 335T524 354Q550 354 566 342T582 309Q582 281 555 281Q524 281 524 311Q524 332 528 340Q484 340 448 308T379 233Q363 213 337 187T279
129Q284 26 267 -62T170 -225Q121 -271 59 -305T-69 -358T-195 -377Q-267 -377 -306 -346T-346 -262Q-346 -212 -314 -174T-225 -119T-96 -111L-100 -125Q-146 -121 -152 -121Q-200 -121 -242 -141T-308 -193T-332 -264Q-332 -309 -290 -335T-190 -362Q-106 -362
-31 -325T137 -205Q222 -128 245 -49T262 113Q213 78 180 60T119 35T59 27Q12 27 -18 51T-49 115Q-49 177 9 225T203 315Z" />
<glyph unicode="&apos;" glyph-name="quotesingle" horiz-adv-x="256" d="M184 389L197 567Q203 655 218 698T264 741Q297 741 297 696Q297 680 289 652T262 567L203 389H184Z" />
<glyph unicode="(" glyph-name="parenleft" horiz-adv-x="555" d="M80 -250H63Q109 137 296 430T746 899T1284 1130L1286 1116Q1107 1074 912 955T542 654T243 238T80 -250Z" />
<glyph unicode=")" glyph-name="parenright" horiz-adv-x="555" d="M717 1130H733Q699 837 581 597T291 182T-84 -100T-487 -250L-489 -236Q-310 -193 -117 -75T254 228T555 644T717 1130Z" />
<glyph unicode="*" glyph-name="asterisk" horiz-adv-x="406" d="M293 793L303 846Q368 818 438 758Q444 824 416 899L467 918Q471 905 471 881Q471 849 457 756Q515 784 567 848L614 813Q575 789 467 739Q530 700 602 692L592 633Q546 654 455 723Q447 680 481
584L424 561Q424 650 438 727Q412 713 394 697T328 633L283 670Q295 681 326 696T430 743Q381 772 293 793Z" />
<glyph unicode="+" glyph-name="plus" horiz-adv-x="874" d="M117 342H416V641H459V342H758V299H459V0H416V299H117V342Z" />
<glyph unicode="," glyph-name="comma" horiz-adv-x="338" d="M-76 -43L-82 -33Q-40 -12 -18 8T17 50T31 74Q49 92 66 92Q84 92 84 72Q84 47 45 22T-76 -43Z" />
<glyph unicode="-" glyph-name="hyphen" horiz-adv-x="362" d="M74 207L86 221H272L260 207H74Z" />
<glyph unicode="." glyph-name="period" horiz-adv-x="330" d="M49 96Q72 96 72 74Q72 61 61 49T37 37Q14 37 14 59Q14 72 25 84T49 96Z" />
<glyph unicode="/" glyph-name="slash" horiz-adv-x="319" d="M-457 -165L766 902L805 897L-420 -170L-457 -165Z" />
<glyph unicode="0" glyph-name="zero" horiz-adv-x="641" d="M575 643Q502 643 405 577T216 411T64 211T4 53Q4 30 20 14T59 -2Q126 -2 222 64T411 227T565 425T627 586Q627 614 614 628T575 643ZM575 657Q608 657 626 638T645 584Q645 502 540 357T295 98T59
-16Q-20 -16 -20 90Q-20 185 39 285T196 470T396 606T575 657Z" />
<glyph unicode="1" glyph-name="one" horiz-adv-x="641" d="M96 299L90 315Q157 345 256 393T442 487T607 578T733 657H748L158 -6H59L664 590Q361 415 96 299Z" />
<glyph unicode="2" glyph-name="two" horiz-adv-x="641" d="M492 584H504Q452 459 371 388T225 317Q205 317 190 330T174 365Q174 435 229 503T365 614T516 657Q560 657 583 631T606 557Q606 467 556 401T427 288T227 188Q126 144 82 121T-12 57Q44 74 86 76Q147
73 203 47Q228 36 245 31T281 25Q306 25 334 45T399 115L412 106Q364 42 319 13T223 -16Q197 -16 135 10Q64 41 16 41Q-39 41 -109 -16H-127Q-58 55 141 168Q319 268 395 330Q465 388 520 462T575 592Q575 645 516 645Q457 645 380 595T246 476T190 365Q190 332
231 332Q277 332 353 392T492 584Z" />
<glyph unicode="3" glyph-name="three" horiz-adv-x="641" d="M555 590H569Q531 521 466 474T342 426Q295 426 295 473Q295 515 336 558T441 629T567 657Q668 657 668 569Q668 513 616 466T424 365L391 352Q481 352 481 266Q481 200 416 134T243 26T12 -16Q-49
-16 -84 6T-119 72Q-119 97 -105 113T-68 129Q-31 129 -31 98Q-31 83 -41 71T-63 59Q-92 59 -98 86Q-102 80 -102 68Q-100 40 -68 19T8 -2Q104 1 204 58T373 188T442 301Q442 318 429 328T399 338Q351 338 250 293L248 305Q349 346 416 381T530 457Q635 542 635
600Q635 619 620 631T586 643Q513 643 449 610T347 534T309 465Q309 455 320 448T346 440Q398 440 458 483T555 590Z" />
<glyph unicode="4" glyph-name="four" horiz-adv-x="641" d="M-23 170L492 645H612Q516 579 403 495T191 332T16 186Q97 203 158 203Q238 203 340 190Q414 256 506 346L528 369L539 358L385 186Q453 176 553 213L551 197Q454 161 371 170L213 -6H106Q145 25 317
176Q236 188 152 188Q105 188 71 181T-16 160L-23 170Z" />
<glyph unicode="5" glyph-name="five" horiz-adv-x="641" d="M137 328L432 655Q446 651 463 643Q522 618 571 618Q612 618 646 630T727 672L733 664Q682 625 633 609T526 592Q481 592 408 608L227 408Q277 435 316 449T393 463Q440 463 460 433T481 336Q481 240
393 159T187 31T0 -16Q-55 -16 -82 5T-109 55Q-109 87 -90 110T-45 133Q-10 133 -10 98Q-10 82 -21 73T-49 63Q-70 63 -86 86Q-94 67 -94 55Q-94 -2 0 -2Q70 -2 147 40T294 148T406 280T449 393Q449 418 436 433T399 449Q333 449 272 416T156 328H137Z" />
<glyph unicode="6" glyph-name="six" horiz-adv-x="641" d="M412 385Q348 385 259 319T99 168T29 45Q29 -2 88 -2Q150 -2 238 63T393 211T459 338Q459 358 446 371T412 385ZM190 287Q260 346 310 372T412 399Q479 399 479 326Q479 236 417 157T264 31T92 -16Q6
-16 6 61Q6 137 68 239T230 437T441 595T645 657Q678 657 700 643T723 596Q723 541 680 541Q668 541 659 552T649 575Q649 592 659 602T684 612Q696 612 705 606Q705 643 639 643Q585 643 508 599T307 432Q258 383 190 287Z" />
<glyph unicode="7" glyph-name="seven" horiz-adv-x="641" d="M389 694L285 588Q294 590 313 598Q354 614 397 614Q444 614 510 596Q565 582 590 582Q633 582 678 631Q704 657 715 657Q736 657 694 618Q650 582 523 459T340 279Q288 224 244 176T127 47T14 -84L-109
-238H-229L612 563Q544 539 508 539Q453 539 397 561Q358 578 324 578Q278 578 207 504H184L377 711Q383 717 391 717Q397 717 397 711Q397 702 389 694Z" />
<glyph unicode="8" glyph-name="eight" horiz-adv-x="641" d="M397 377Q553 424 599 468T645 561Q645 598 619 620T549 643Q501 643 457 621T385 564T356 496Q356 464 397 377ZM340 350Q205 300 149 276T46 204T-2 88Q-2 50 18 24T106 -2Q169 -2 232 26T336 103T377
205Q377 262 340 350ZM334 362Q311 404 311 444Q311 498 343 547T430 626T551 657Q601 657 632 630T664 559Q664 489 600 449T401 365Q428 310 428 262Q428 191 383 127T261 24T102 -16Q39 -16 4 10T-31 84Q-31 183 64 240T334 362Z" />
<glyph unicode="9" glyph-name="nine" horiz-adv-x="641" d="M526 643Q471 643 382 577T224 426T154 297Q154 256 205 256Q274 256 364 321T522 469T590 588Q590 643 526 643ZM436 356Q365 297 308 270T201 242Q165 242 150 259T135 315Q135 395 196 476T348 607T518
657Q604 657 604 571Q604 486 539 384T373 191T162 42T-29 -16Q-109 -16 -109 43Q-109 66 -97 81T-66 96Q-35 96 -35 66Q-35 42 -49 32T-84 27Q-82 14 -66 6T-25 -2Q60 -2 147 61T301 197T436 356Z" />
<glyph unicode=":" glyph-name="colon" horiz-adv-x="319" d="M49 96Q72 96 72 74Q72 61 61 49T37 37Q14 37 14 59Q14 72 25 84T49 96ZM207 348Q219 348 224 342T229 326Q229 312 219 301T195 289Q172 289 172 311Q172 324 183 336T207 348Z" />
<glyph unicode=";" glyph-name="semicolon" horiz-adv-x="319" d="M-76 -43L-82 -33Q-40 -12 -18 8T17 50T31 74Q49 92 66 92Q84 92 84 72Q84 47 45 22T-76 -43ZM207 348Q219 348 224 342T229 326Q229 312 219 301T195 289Q172 289 172 311Q172 324 183 336T207 348Z" />
<glyph unicode="&lt;" glyph-name="less" horiz-adv-x="874" d="M758 29L117 301V340L758 612V565L172 322L758 76V29Z" />
<glyph unicode="=" glyph-name="equal" horiz-adv-x="874" d="M117 481H758V438H117V481ZM117 203H758V160H117V203ZM117 481H758V438H117V481ZM117 203H758V160H117V203Z" />
<glyph unicode="&gt;" glyph-name="greater" horiz-adv-x="874" d="M117 612L758 340V301L117 29V76L702 319L117 565V612Z" />
<glyph unicode="?" glyph-name="question" horiz-adv-x="606" d="M530 633L541 627Q495 564 436 523T328 481Q306 481 291 494T276 530Q276 572 314 615T410 687T520 715Q606 715 606 616Q606 529 559 480T412 371Q298 304 242 259T125 141H109Q137 176 161 202T218
256T326 344Q387 393 424 424T498 494T560 574T584 649Q584 700 516 700Q468 700 416 671T327 601T291 530Q291 517 301 507T328 496Q371 496 428 535T530 633ZM25 51Q25 64 40 80T68 96Q82 96 82 80Q82 69 68 53T41 37Q25 37 25 51Z" />
<glyph unicode="@" glyph-name="at" horiz-adv-x="831" d="M565 406L520 248Q483 122 483 96Q483 88 489 78T512 68Q569 68 625 143T682 324Q682 392 649 448T557 536T424 567Q313 567 236 511T122 368T84 193Q84 104 123 30T232 -85T395 -127Q497 -127 581 -71T713
94H735Q708 13 653 -42T528 -124T391 -150Q286 -150 207 -104T87 23T45 203Q45 303 91 392T226 535T422 590Q504 590 568 557T668 463T705 317Q705 214 645 126T487 37Q424 37 424 92Q424 114 432 152Q393 104 355 71T274 37Q240 37 222 67T203 131Q203 184 236
249T319 361T422 408Q477 408 489 354L504 397L565 406ZM426 389Q392 389 355 344T292 238T266 141Q266 120 279 103T311 86Q346 86 385 124T449 221T475 332Q475 355 463 372T426 389Z" />
<glyph unicode="A" glyph-name="A" horiz-adv-x="1406" d="M1022 449Q1003 553 933 638T760 723Q686 723 647 682T595 594T582 522Q582 427 615 356T727 203Q833 285 1022 449ZM1036 461Q1237 638 1360 741T1592 926T1787 1052T1952 1114L1962 1106L1933 1079Q1801
955 1698 848T1477 609T1258 350T1044 74Q1091 74 1154 103T1281 181T1399 283V266Q1339 202 1234 131T1036 59L995 0H903L956 70Q883 84 835 109T727 182Q640 126 566 85T409 14T244 -16Q161 -16 115 15T68 100Q68 137 91 165T147 193Q168 193 179 182T190 160Q190
129 152 129Q121 129 115 162Q84 136 84 96Q84 50 125 24T242 -2Q320 -2 402 27T559 98T713 193Q635 279 601 349T567 506Q567 598 615 667T758 737Q863 737 934 661T1036 461ZM1565 743L1591 772Q1633 817 1754 933T1917 1087Q1839 1072 1715 992T1465 811T1231
613T1042 446Q1054 355 1045 283T1001 127Q1040 176 1098 240T1194 344T1316 475T1565 743ZM1026 434Q985 396 897 322T739 193Q800 144 850 119T967 82Q1011 176 1024 259T1026 434Z" />
<glyph unicode="B" glyph-name="B" horiz-adv-x="1473" d="M1362 569Q1319 625 1260 625Q1240 625 1226 612T1212 580Q1212 540 1272 543Q1294 544 1315 550T1362 569ZM1153 1020L1169 1018Q1169 929 1112 832T965 654T778 523T604 473Q542 473 508 509T473 610Q473
702 538 795T715 963T974 1084T1278 1130Q1349 1130 1400 1121T1495 1093T1589 1032Q1639 1064 1695 1091T1792 1130L1804 1114Q1760 1101 1700 1071T1604 1018Q1636 982 1645 948T1655 866Q1655 802 1627 749T1540 650T1386 561Q1408 523 1416 492T1425 418Q1425
341 1383 263T1272 123T1116 22T944 -16Q850 -16 850 63Q850 121 897 187T1024 308T1188 385L1192 371Q1050 322 975 250Q923 201 894 151T864 59Q864 -2 946 -2Q1032 -2 1112 52T1255 191T1351 357T1386 492Q1386 525 1374 553Q1328 528 1272 528Q1231 528 1215
542T1198 582Q1198 605 1214 622T1262 639Q1321 639 1376 575Q1440 611 1496 669T1584 795T1616 920Q1616 981 1589 1008Q1485 950 1371 843T1124 543Q1056 440 1007 384T883 258Q802 183 724 128T577 43T440 -2T295 -16Q70 -16 70 98Q70 126 84 143T123 160Q138
160 148 149T158 123Q158 110 147 101T125 92Q106 92 94 109Q92 113 88 113Q84 113 84 94Q84 51 137 25T289 -2Q391 -2 472 23T625 103T793 258Q814 281 860 334T974 468T1097 611T1174 692L1235 750Q1378 884 1427 924T1573 1022Q1465 1116 1282 1116Q1116 1116
971 1069T718 946T550 781T489 612Q489 555 519 522T604 489Q675 489 771 538T954 666T1097 838T1153 1020Z" />
<glyph unicode="C" glyph-name="C" horiz-adv-x="938" d="M512 575Q676 616 832 678T1104 808T1283 941T1346 1061Q1346 1116 1284 1116Q1183 1116 1046 1034T771 831T512 575ZM383 543Q210 532 138 594T66 752Q66 804 98 868T208 991T427 1090T776 1130V1116Q558
1116 415 1074T202 972T106 853T80 748Q80 655 154 600T395 555Q478 644 595 745T837 934T1080 1075T1284 1130Q1360 1130 1360 1059Q1360 983 1238 884T918 697T498 561Q401 454 343 376T257 236T229 123Q229 73 275 36T397 -2Q499 -2 603 51T775 184T844 330Q844
384 813 411T725 438Q649 438 545 370T340 115L326 125Q417 297 523 375T727 453Q792 453 825 420T858 332Q858 275 818 214T707 100T556 16T401 -16Q302 -16 248 32T193 176Q193 261 235 343T383 543Z" />
<glyph unicode="D" glyph-name="D" horiz-adv-x="1386" d="M1386 924Q1312 868 1253 787T1122 578Q1073 489 1026 418T905 271T724 130T469 25Q572 -2 655 -2Q822 -2 964 78T1206 284T1361 543T1415 776Q1415 848 1386 924ZM418 27Q335 56 282 69T168 82Q114 82
81 69T47 35Q47 -2 170 -2Q305 -2 418 27ZM995 969H1010Q1010 866 963 767T838 586T672 457T504 410Q348 410 348 571Q348 674 406 775T566 957T794 1084T1051 1130Q1177 1130 1257 1088T1393 948Q1434 984 1488 1016T1595 1069L1604 1059Q1506 1019 1399 934Q1419
883 1424 851T1430 772Q1430 670 1376 535T1220 273T973 65T655 -16Q533 -16 442 16Q319 -16 190 -16Q33 -16 33 35Q33 64 68 80T166 96Q236 96 296 82T442 33Q535 60 606 95T737 183T849 299T975 471Q1049 581 1127 677T1270 838T1380 940Q1328 1032 1251 1074T1057
1116Q916 1116 789 1057T569 907T425 717T373 549Q373 491 407 458T500 424Q571 424 657 470T820 594T946 772T995 969Z" />
<glyph unicode="E" glyph-name="E" horiz-adv-x="885" d="M641 717Q778 738 899 801T1092 938T1165 1065Q1165 1089 1145 1101T1087 1114Q1014 1114 923 1063T754 922T641 717ZM637 653Q644 605 663 580T727 555Q747 555 761 566T776 596Q776 625 739 641T637
653ZM616 664L612 694Q524 682 467 682Q338 682 262 729T186 864Q186 912 224 972T374 1081T690 1130V1116Q542 1116 442 1087T292 1016T223 932T205 856Q205 797 266 747T471 696Q515 696 610 711Q612 783 631 831T698 936Q773 1019 886 1074T1092 1130Q1134 1130
1157 1113T1180 1067Q1180 1020 1134 961T1012 847T841 753T639 698L635 666Q704 674 747 655T791 596Q791 569 771 555T723 541Q642 541 618 651Q488 627 391 562T235 417T148 264T119 143Q119 -2 289 -2Q397 -2 507 50T689 183T760 346Q760 392 729 418T643 444Q575
444 501 409T367 309Q330 272 307 234T254 127H240Q275 209 298 246T360 324Q495 457 647 457Q706 457 740 428T774 348Q774 258 701 174T515 37T295 -16Q178 -16 121 43T63 207Q63 285 107 360T226 496T403 601T616 664Z" />
<glyph unicode="F" glyph-name="F" horiz-adv-x="1130" d="M1204 938L1214 934Q1157 830 1079 747T911 618T723 573Q561 573 561 700Q561 765 609 838T750 976T972 1079T1262 1118Q1338 1118 1468 1098Q1593 1077 1677 1077Q1775 1077 1864 1126L1872 1118Q1754
1034 1614 1034Q1549 1034 1411 1063Q1325 1080 1281 1085T1190 1090Q1046 1090 929 1049T734 946T616 817T575 702Q575 588 725 588Q799 588 883 626T1051 743T1204 938ZM1176 541Q1255 553 1281 581T1307 627Q1307 664 1272 664Q1243 664 1221 633T1176 541ZM719
408L709 416Q815 500 1008 522Q1154 736 1241 839T1456 1022L1466 1016Q1312 884 1253 807T1083 528L1145 537Q1175 606 1205 642T1274 678Q1321 678 1321 627Q1321 585 1278 560T1171 524Q1161 464 1155 391L1096 369Q1123 482 1139 520L1075 512Q934 242 733
113T289 -16Q201 -16 148 13T94 104Q94 137 113 161T164 186Q188 186 200 174T213 141Q213 102 166 102Q136 102 127 145Q109 123 109 104Q109 59 161 29T297 -2Q399 -2 495 32T678 132T842 289T997 506Q818 481 719 408Z" />
<glyph unicode="G" glyph-name="G" horiz-adv-x="981" d="M502 569Q679 599 882 686T1224 881T1364 1069Q1364 1116 1290 1116Q1206 1116 1104 1074T895 953T687 776T502 569ZM1030 518L1038 508Q964 457 929 422T836 299Q769 202 714 140T563 31T334 -16Q232
-16 173 21T113 121Q113 154 129 175T172 197Q188 197 199 188T211 162Q211 150 200 141T176 131Q157 131 139 162Q129 141 129 119Q129 64 185 31T332 -2Q461 -2 529 42T666 172Q704 219 749 270T815 344Q740 295 669 266T518 236Q441 236 396 276T350 383Q350
451 397 545H387Q194 545 138 621T82 768Q82 839 127 905T250 1021T431 1101T649 1130Q709 1130 764 1122L762 1110Q704 1116 651 1116Q539 1116 440 1088T265 1009T145 893T102 756Q102 669 155 625T269 570T403 557Q421 581 447 618T507 691T577 760T670 834Q802
930 897 990T1094 1090T1290 1130Q1378 1130 1378 1071Q1378 1005 1295 923T1079 767T790 636T494 555Q440 472 419 423T397 338Q397 299 430 275T518 250Q601 250 682 288T848 386T1030 518Z" />
<glyph unicode="H" glyph-name="H" horiz-adv-x="1386" d="M1286 639Q1555 716 1705 802T1910 959T1966 1069Q1966 1116 1913 1116Q1847 1116 1754 1061T1561 920T1391 761T1286 639ZM817 518Q600 479 436 394T185 216T98 61Q98 -2 180 -2Q242 -2 338 42T560 203T817
518ZM907 877L920 870Q843 806 777 777T639 748Q492 748 492 868Q492 906 514 950T583 1037T703 1104T881 1130Q960 1130 1007 1102T1055 1026Q1055 1017 1050 983T1044 952Q1044 926 1090 926Q1144 926 1199 957T1331 1059Q1396 1118 1413 1118Q1423 1118 1423
1112Q1423 1101 1403 1090Q1364 1063 1253 971Q1109 852 942 559L1174 610L1280 717L1337 772Q1500 926 1653 1028T1907 1130Q1941 1130 1960 1115T1980 1073Q1980 990 1876 900T1609 735T1272 621Q1210 545 1139 452T1017 284T935 150T905 53Q905 31 921 15T958
-2Q1001 -2 1052 22T1164 89T1282 182T1401 283V266Q1325 200 1275 157T1169 73T1061 8T965 -16Q923 -16 899 11T874 80Q874 281 1157 592L932 543Q926 526 881 469T763 337T590 182Q511 118 397 51T174 -16Q120 -16 102 4T84 59Q84 137 180 236T450 420T836 539L868
580Q966 701 1011 751T1196 940Q1122 913 1079 913Q997 913 997 979Q997 981 1002 1015T1008 1051Q1008 1116 883 1116Q751 1116 666 1073T544 971T506 868Q506 819 540 791T637 762Q706 762 770 789T907 877Z" />
<glyph unicode="I" glyph-name="I" horiz-adv-x="961" d="M909 541Q1048 725 1155 828T1355 992T1585 1118Q1383 1115 1232 1067T987 947T849 801T805 674Q805 561 909 541ZM242 -2Q364 -2 469 52T654 190T803 379T899 526Q835 541 799 583T762 690Q762 743 801
816T937 961T1204 1082T1626 1130V1120Q1483 1058 1375 980T1194 823T1076 674T989 526Q1230 529 1278 809H1292Q1252 510 977 510Q929 414 855 322T683 152T472 29T238 -16Q150 -16 94 19T37 113Q37 147 56 168T104 190Q125 190 137 180T150 150Q150 111 104 111Q74
111 66 147Q55 133 55 111Q55 55 113 27T242 -2Z" />
<glyph unicode="J" glyph-name="J" horiz-adv-x="1024" d="M932 537Q985 597 1056 678T1223 854T1427 1023T1636 1122Q1435 1129 1278 1088T1017 979T860 830T807 680Q807 572 932 537ZM506 4Q277 -30 79 -79T-249 -193T-379 -336Q-379 -370 -338 -393T-233 -416Q-88
-416 69 -335T345 -153T506 4ZM1036 266Q1002 231 961 195T873 132T767 82T608 31Q539 -37 443 -116T234 -268T0 -385T-236 -430Q-306 -430 -348 -404T-391 -338Q-391 -115 522 25Q623 138 745 301Q871 472 920 522Q849 549 820 587T791 684Q791 783 864 873T1065
1027T1365 1120T1724 1130V1116Q1601 1120 1472 1035T1227 816T1006 526Q1111 526 1179 555T1286 633T1358 750H1376Q1327 627 1243 570T1028 512H993L954 455Q866 325 800 243T635 55Q737 84 803 115T910 176T1036 283V266Z" />
<glyph unicode="K" glyph-name="K" horiz-adv-x="1430" d="M1210 567Q1173 631 1118 631Q1096 631 1082 620T1067 594Q1067 551 1137 551Q1165 551 1210 567ZM1446 283V266Q1321 154 1257 100T1136 15T1028 -16Q965 -16 965 59Q965 110 975 146T1005 214T1045
270T1098 328Q1217 454 1217 514Q1217 543 1212 553Q1173 537 1135 537Q1100 537 1077 553T1053 594Q1053 617 1072 631T1120 645Q1185 645 1225 573Q1286 602 1334 638T1468 770Q1619 939 1743 1034T1995 1130Q2081 1130 2081 1077Q2081 1049 2056 1049Q2034 1049
2034 1073Q2034 1075 2036 1087T2038 1102Q2038 1111 2026 1115T1993 1120Q1837 1120 1696 954Q1605 848 1540 781T1394 651T1229 557Q1235 524 1235 508Q1235 446 1194 362T1075 186Q985 79 985 43Q985 -2 1036 -2Q1070 -2 1115 21T1203 78T1302 159T1391 236L1446
283ZM1008 899L1018 891Q955 816 883 776T725 735Q647 735 600 769T553 858Q553 928 602 991T743 1092T954 1130Q1122 1130 1122 1012Q1122 1008 1118 984T1114 954Q1114 920 1159 920Q1196 920 1234 940T1313 994T1360 1032Q1372 1040 1396 1062T1441 1099T1479
1114Q1493 1114 1480 1100T1452 1077Q1423 1057 1335 983Q1237 895 1174 814T1008 571Q952 482 914 428T839 329T758 238Q680 157 602 101T433 15T225 -16Q130 -16 84 19T37 111Q37 144 54 164T104 184Q143 184 143 150Q143 117 104 117Q70 117 70 156Q51 145 51
109Q51 63 95 31T231 -2Q330 -2 412 31T561 119T674 230T797 389Q883 507 926 562T1040 702L1063 729Q1111 785 1223 899L1255 934Q1246 929 1229 921T1192 909T1149 905Q1113 906 1091 926T1069 981Q1069 979 1074 1008T1079 1049Q1079 1116 954 1116Q833 1116
747 1077T615 979T569 860Q569 812 613 781T727 750Q880 750 1008 899Z" />
<glyph unicode="L" glyph-name="L" horiz-adv-x="1217" d="M1032 543Q1194 597 1324 673T1539 824T1667 963T1712 1058Q1712 1083 1700 1100T1663 1116Q1552 1109 1428 1015T1198 789T1032 543ZM457 41Q385 65 312 79T190 94Q133 94 102 80T70 45Q70 -2 215 -2Q346
-2 457 41ZM879 449L905 492Q819 471 735 471Q636 471 566 503T459 591T422 717Q422 820 506 916T742 1071T1085 1130V1116Q907 1115 761 1059T533 911T451 711Q451 610 528 553T748 492Q826 489 924 518Q1019 648 1134 779T1394 1020T1663 1130Q1739 1130 1739
1065Q1739 1016 1687 944T1540 793T1311 644T1024 524L1008 502Q918 378 889 339T806 246T680 139T508 41Q632 -2 762 -2Q828 -2 883 19T1008 93T1229 283V266Q1122 169 1058 115T948 34T858 -4T762 -16Q646 -16 489 31Q419 6 356 -5T217 -16Q49 -16 49 45Q49 109
199 109Q257 109 311 100T442 63L485 49Q603 115 693 204T879 449Z" />
<glyph unicode="M" glyph-name="M" horiz-adv-x="1493" d="M741 365Q800 431 928 558T1133 758Q1218 838 1277 892T1380 982T1474 1053T1591 1130L1604 1122Q1435 934 1397 885L1378 862Q1373 855 1352 829Q1210 665 1042 459Q909 292 855 220T772 104Q744 60
733 29T737 -2Q756 -2 802 37T903 134T1077 319Q1105 350 1134 381T1201 454T1274 532Q1411 678 1480 745T1651 903L1708 954Q1837 1069 1942 1130L1954 1122L1913 1073Q1703 821 1544 623T1297 309T1159 116T1108 20Q1108 -2 1130 -2Q1164 -2 1225 41T1370 161T1505
283V266Q1376 147 1318 96T1211 14T1122 -16Q1085 -16 1085 25Q1085 105 1143 213T1297 439T1536 707L1898 1083Q1794 1026 1528 774Q1517 764 1497 744T1433 680T1317 559T1178 412L1149 381Q1137 365 1120 348Q994 209 932 142T815 30T729 -16Q722 -16 716 -4T709
18Q709 84 749 165T848 325T969 473Q1132 658 1218 751T1425 961L1567 1096Q1476 1037 1428 1001T1290 885Q1251 851 1173 778T1032 642T900 509T754 354Q654 245 613 200T504 101T363 15T203 -16Q144 -16 107 9T70 78Q70 108 83 129T127 150Q143 150 156 139T170
111Q170 97 161 87T137 76Q101 76 111 117Q111 123 109 125Q98 125 91 110T84 76Q84 43 116 21T197 -2Q285 -2 361 29T496 109T592 198T741 365Z" />
<glyph unicode="N" glyph-name="N" horiz-adv-x="1237" d="M1171 788L1128 555Q1118 496 1098 426T1047 262L1235 516Q1439 794 1569 924Q1667 1022 1770 1076T1966 1130Q2122 1130 2122 1036Q2122 1010 2107 993T2073 975Q2063 975 2055 984T2046 1006Q2046 1020
2054 1028T2075 1036Q2081 1036 2089 1031T2103 1022Q2107 1022 2107 1036Q2107 1118 1968 1118Q1855 1118 1724 1030T1450 772Q1402 715 1330 621T1178 415T1024 195Q939 72 903 28T838 -16Q827 -16 827 -10Q827 1 856 20Q919 63 957 130T1010 311L1014 344Q1034
506 1066 609T1151 842Q1170 886 1176 897L1161 881L1143 856Q1064 751 976 639T825 454T689 303T573 182Q522 133 477 98T386 39T288 -1T182 -16Q108 -16 68 10T27 86Q27 120 47 143T96 166Q135 166 135 129Q135 92 96 92Q65 92 57 127Q41 105 41 80Q41 45 79
22T176 -2Q239 -2 296 17T415 76T542 176T688 324Q779 423 911 582T1104 823L1206 965Q1206 965 1240 1012T1284 1073Q1320 1130 1333 1130Q1341 1130 1341 1122Q1341 1117 1331 1104Q1200 945 1171 788Z" />
<glyph unicode="O" glyph-name="O" horiz-adv-x="897" d="M444 549H432Q480 669 555 763T711 916T868 1005T995 1034Q1045 1034 1074 1002T1104 913Q1104 816 1018 659T794 345T503 86T221 -16Q144 -16 96 30T47 168Q47 272 99 383T256 615T512 858Q682 993 834
1061T1124 1130Q1210 1130 1259 1095T1309 997Q1309 928 1265 888T1137 825L1139 840Q1217 858 1255 900T1294 997Q1294 1054 1247 1085T1118 1116Q970 1116 812 1039T516 819Q435 736 359 640T220 446T120 264T82 125Q82 73 117 36T215 -2Q339 -2 489 98T778 354T1003
663T1090 913Q1090 963 1066 992T997 1022Q946 1022 868 991T712 901T561 751T444 549Z" />
<glyph unicode="P" glyph-name="P" horiz-adv-x="1153" d="M1135 967L1147 963Q1108 814 1020 697T821 516T610 451Q552 451 518 483T483 571Q483 657 544 755T715 939T964 1077T1255 1130Q1391 1130 1481 1040Q1574 1101 1649 1128L1653 1118Q1575 1089 1491
1026Q1517 990 1525 962T1534 883Q1534 831 1503 763T1417 648T1296 600Q1269 600 1251 619T1233 664Q1233 720 1287 771T1427 850L1432 840Q1342 810 1294 764T1245 664Q1245 643 1257 629T1292 614Q1323 614 1359 641T1432 716T1488 817T1509 920Q1509 967 1477
1014Q1398 957 1336 893T1230 766T1143 621Q1060 460 999 370T870 219Q789 145 694 92T497 12T297 -16Q197 -16 147 17T96 109Q96 139 118 162T170 186Q215 186 215 143Q215 104 170 104Q153 104 146 111T127 141V143Q113 134 113 98Q113 61 163 30T299 -2Q446
-2 573 67T808 255T1024 541Q1092 647 1148 721T1255 848T1358 944T1466 1028Q1393 1116 1257 1116Q1098 1116 959 1061T717 921T557 742T498 578Q498 528 527 497T606 465Q700 465 810 533T1009 717T1135 967Z" />
<glyph unicode="Q" glyph-name="Q" horiz-adv-x="961" d="M977 266Q878 181 814 130T697 47T600 0T518 -16Q432 -16 387 18Q303 -16 221 -16Q138 -16 92 34T45 172Q45 314 152 480T435 797T795 1039T1124 1130Q1212 1130 1260 1094T1309 989Q1309 924 1268 882T1141
819V829Q1218 848 1257 891T1296 989Q1296 1049 1253 1082T1124 1116Q937 1116 752 996T418 702T178 361T86 119Q86 63 122 31T227 -2Q293 -2 379 33Q371 57 367 80Q347 188 264 188Q220 188 162 154L154 164Q213 203 262 203Q312 203 348 174T434 61Q513 105 566
146T692 258Q780 344 873 462T1030 700T1094 911Q1094 959 1068 987T997 1016Q917 1016 812 959T608 795T449 543L432 547Q467 640 530 727T673 882T838 990T999 1030Q1050 1030 1079 996T1108 909Q1108 798 1020 649T807 359T598 152Q545 109 444 49Q468 17 486
8T539 -2Q651 -2 977 283V266Z" />
<glyph unicode="R" glyph-name="R" horiz-adv-x="1430" d="M1260 463Q1243 528 1188 528Q1166 528 1153 517T1139 487Q1139 466 1156 460T1204 453Q1229 453 1260 463ZM1149 979L1161 981Q1138 841 1076 738T930 569T768 474T625 444Q549 444 512 476T475 565Q475
636 529 731T690 919T948 1071T1284 1130Q1380 1130 1441 1112T1565 1040Q1646 1084 1726 1108L1729 1098Q1644 1068 1575 1030Q1651 937 1651 829Q1651 747 1610 676T1484 546T1278 449Q1278 374 1256 328T1163 203Q1059 86 1059 29Q1059 -2 1087 -2Q1123 -2 1211
73T1440 283V266Q1341 161 1234 73T1087 -16Q1038 -16 1038 47Q1038 126 1072 185T1159 299Q1211 352 1231 382T1260 444Q1229 438 1190 438Q1159 438 1142 452T1124 487Q1124 512 1142 527T1188 543Q1247 543 1276 469Q1391 510 1464 592T1570 762T1602 905Q1602
972 1559 1020Q1478 970 1415 916T1289 783T1135 571L1116 545Q1070 477 1045 441T996 375T936 309Q620 -16 252 -16Q146 -16 91 16T35 109Q35 140 52 163T96 186Q137 186 137 152Q137 139 126 129T102 119Q73 119 70 158Q63 158 56 141T49 106Q49 55 101 27T248
-2Q374 -2 476 37T664 144T820 290T999 502L1028 537Q1158 696 1268 812T1546 1032Q1500 1077 1442 1096T1282 1116Q1106 1116 957 1058T706 912T549 730T494 571Q494 521 528 490T618 459Q691 459 772 494T932 598T1068 765T1149 979Z" />
<glyph unicode="S" glyph-name="S" horiz-adv-x="1110" d="M1094 586Q1201 652 1304 728T1494 880T1629 1009T1677 1085Q1677 1116 1638 1116Q1556 1116 1456 1048T1270 874Q1224 819 1184 752T1094 586ZM1087 569L1067 530Q780 -16 279 -16Q173 -16 112 17T51
109Q51 134 63 153T102 172Q121 172 132 160T143 131Q143 121 134 111T111 100Q96 100 90 102T74 121Q70 117 70 98Q70 78 87 55T156 15T293 -2Q470 -2 610 90T835 296T989 537Q859 500 766 500Q639 500 556 561T473 717Q473 819 564 918T816 1080T1169 1143V1130Q969
1129 814 1064T577 905T496 725Q496 630 570 571T762 512Q878 512 1001 555Q1012 568 1036 606Q1120 736 1206 836T1368 1001T1513 1097T1636 1130Q1692 1130 1692 1087Q1692 1019 1601 916T1369 717T1087 569Z" />
<glyph unicode="T" glyph-name="T" horiz-adv-x="1153" d="M1233 952H1247Q1166 788 1063 706T884 603T768 582Q692 582 648 619T604 719Q604 773 641 840T757 970T959 1073T1249 1114Q1364 1114 1550 1096Q1721 1079 1808 1079Q1893 1079 1950 1089T2030 1116H2048Q2008
1080 1915 1058T1749 1036Q1709 1036 1530 1063Q1274 1100 1206 1100Q1074 1100 962 1064T773 967T656 841T616 717Q616 661 656 628T762 594Q812 594 877 617T1007 685T1133 800T1233 952ZM1040 522L1067 559Q1314 904 1573 1030L1583 1022Q1493 975 1423 922T1296
800T1192 647Q1106 493 1060 422T965 295Q897 220 815 160T648 62T472 4T289 -16Q170 -16 116 19T61 109Q61 143 80 164T125 186Q170 186 170 147Q170 134 161 124T137 113Q90 113 106 168Q89 158 83 145T76 111Q76 63 129 31T279 -2Q424 -2 552 47T745 160Q784
197 817 233T905 340T1040 522Z" />
<glyph unicode="U" glyph-name="U" horiz-adv-x="897" d="M633 1028H647Q621 952 575 889T466 773T338 692T209 664Q98 664 98 754Q98 831 168 920T358 1070T610 1130Q772 1130 772 1001Q772 852 655 717L174 170Q118 105 97 77T76 31Q76 -2 119 -2Q211 -2 352
97T625 322T809 508L1272 1032H1364L526 78Q500 47 500 25Q500 -2 530 -2Q582 -2 672 71T909 283V266Q760 123 674 54T524 -16Q506 -16 493 -3T479 33Q479 130 623 295Q638 314 642 317T651 324Q511 195 407 119T235 13T113 -16Q73 -16 59 3T45 33Q45 88 78 146T180
283L643 811Q756 941 756 1016Q756 1061 719 1088T602 1116Q479 1116 366 1057T184 911T113 758Q112 722 139 700T205 678Q269 678 351 717T509 835T633 1028Z" />
<glyph unicode="V" glyph-name="V" horiz-adv-x="725" d="M193 78L123 6Q261 64 401 178T654 410T930 709Q994 781 1055 844T1194 971T1364 1083T1540 1130Q1677 1130 1677 1034Q1677 1013 1665 999T1634 985Q1597 985 1597 1018Q1597 1039 1610 1046T1647 1053Q1657
1053 1657 1057Q1657 1078 1625 1097T1542 1116Q1447 1116 1339 1051T1125 887T938 695T825 567Q766 501 683 414T509 246T311 95T92 -16L86 -6Q193 99 261 181T403 377L432 422Q542 594 627 694L659 733Q718 805 870 979Q813 939 776 921T682 903Q573 903 573
981Q573 985 577 1009T582 1042Q582 1077 548 1096T461 1116Q382 1116 317 1093T204 1030T131 947T104 860Q104 806 145 772T246 737Q321 737 396 782T528 889L539 885Q480 808 401 766T248 723Q180 723 135 761T90 856Q90 928 144 991T284 1092T453 1130Q562 1130
591 1082T621 965Q621 938 631 928T670 918Q755 918 823 964T954 1079Q963 1089 970 1097T985 1114T1000 1126T1014 1130Q1027 1130 1015 1116T973 1072T911 1008Q877 968 825 894T741 766Q676 653 622 574T506 419T387 280T193 78Z" />
<glyph unicode="W" glyph-name="W" horiz-adv-x="1044" d="M1081 541Q1142 605 1254 720T1467 923T1674 1070T1870 1130Q1927 1130 1961 1105T1995 1036Q1995 1013 1984 999T1956 985Q1923 985 1923 1016Q1923 1047 1954 1047Q1958 1047 1965 1045T1974 1042Q1980
1042 1980 1053Q1980 1080 1951 1098T1872 1116Q1782 1116 1674 1053T1478 912T1303 742T1174 606Q1099 531 985 414T785 214T619 73T465 -18L457 -6Q578 127 633 225Q836 579 1001 768L1067 842Q1134 918 1188 975Q1251 1038 1243 1038Q1236 1038 1165 972T1000
812T840 645L801 602Q729 520 640 427T459 246T274 87T100 -18L92 -6Q157 52 220 140T371 369Q421 450 424 455L438 479Q597 720 770 893L842 965Q748 899 670 899Q588 899 588 971Q588 974 592 1001T596 1034Q596 1050 580 1069T532 1102T455 1116Q356 1116 277
1072T155 965T113 848Q113 796 152 763T254 729Q336 729 404 770T543 893L549 883Q422 715 252 715Q182 715 140 751T98 848Q98 909 143 975T269 1086T457 1130Q537 1130 586 1095T635 1004Q635 999 633 979T631 956Q631 913 680 913Q751 913 824 969T965 1092Q977
1104 985 1112T999 1125T1014 1130Q1022 1130 1022 1126Q1022 1119 977 1079Q871 987 794 885T633 643Q566 531 531 478T414 327T184 66L143 20Q223 67 297 125T423 232T535 340T694 508L766 586Q850 678 929 761T1075 911T1209 1035T1335 1130L1348 1120Q1176
927 1141 879Q1128 860 1081 787T998 659T913 530Q779 336 715 257T532 51L504 20Q569 56 654 125T817 270T967 420T1081 541Z" />
<glyph unicode="X" glyph-name="X" horiz-adv-x="1260" d="M1108 608Q1375 686 1544 768T1788 925T1864 1059Q1864 1086 1848 1101T1800 1116Q1711 1116 1589 1048T1338 862T1108 608ZM965 561Q749 514 580 449T297 313T126 174T68 53Q68 -2 156 -2Q213 -2 299
29T488 124T711 296T965 561ZM1081 989L1094 985Q1025 846 934 774T772 682T659 662Q596 662 560 692T524 774Q524 849 591 933T774 1073T1022 1130Q1077 1130 1119 1109T1182 1044T1204 936Q1204 887 1195 844T1165 748Q1357 928 1522 1029T1804 1130Q1839 1130
1858 1114T1878 1065Q1878 1000 1809 924T1560 760T1090 590Q978 461 920 381T813 217Q780 159 764 118T748 53Q748 28 767 13T817 -2Q872 -2 947 34T1106 136T1274 283V266Q984 -16 815 -16Q775 -16 751 4T727 61Q727 157 856 373Q711 234 577 146T339 21T156
-16Q106 -16 80 -3T53 51Q53 140 172 242T503 434T985 580Q1062 674 1104 738T1165 855T1184 963Q1184 1033 1138 1074T1024 1116Q884 1116 773 1058T601 919T539 776Q539 730 571 703T662 676Q739 676 819 715T967 824T1081 989Z" />
<glyph unicode="Y" glyph-name="Y" horiz-adv-x="918" d="M741 993L756 991Q741 926 678 855T525 738T344 692Q306 692 274 713T242 786Q242 863 311 944T487 1077T700 1130Q874 1130 874 973Q874 924 857 876T802 774T696 647L657 604Q616 563 616 563Q511 454
469 402T426 322Q426 303 442 289T487 274Q562 274 647 321T806 433T926 551L1360 1032H1446L887 399Q758 253 662 166T467 32T258 -16Q202 -16 158 0T90 48T66 119Q66 155 84 176T135 197Q172 197 172 164Q172 133 139 133Q114 133 104 168Q94 165 87 150T80 119Q80
65 131 32T258 -2Q357 -2 445 42T607 157T754 322T887 492Q774 365 667 313T492 260Q412 260 412 330Q412 388 459 469T676 721Q773 818 813 884T854 1006Q854 1056 814 1086T711 1116Q595 1116 489 1062T320 929T256 788Q256 750 281 729T346 707Q438 707 522
751T666 865T741 993Z" />
<glyph unicode="Z" glyph-name="Z" horiz-adv-x="1110" d="M1124 891Q1238 913 1327 955T1464 1037T1511 1096Q1511 1116 1485 1116Q1453 1116 1397 1084T1262 994T1124 891ZM1087 887H1096L1135 918Q1254 1013 1343 1071T1491 1130Q1506 1130 1516 1122T1526
1100Q1526 1065 1470 1019T1315 932T1112 877L889 635Q933 623 969 623Q997 623 1020 630T1071 653L1077 643Q1036 613 989 600T850 594Q792 535 673 427T483 264Q530 282 578 295T680 318T766 328Q862 328 862 258Q862 183 760 94Q698 42 698 16Q698 -4 733 -4Q759
-4 817 28T955 127T1124 283L1126 266Q1046 181 970 118T833 19T733 -16Q684 -16 684 35Q684 78 704 116T782 195Q844 236 844 272Q844 291 826 302T766 313Q724 313 613 287T440 231Q311 122 235 68T117 -4Q89 -16 74 -16Q53 -16 53 2Q53 39 117 80T348 201L430
240L782 610Q731 627 696 627Q645 627 594 582L584 588Q616 628 679 645T821 647L952 762Q980 784 1025 822T1083 874Q944 879 944 958Q944 982 956 1010Q969 1036 969 1049Q969 1077 922 1096T813 1116Q689 1116 604 1073T481 971T442 870Q442 822 479 793T580
764Q667 764 737 802T891 924L901 915Q824 832 747 791T582 750Q512 750 470 783T428 870Q428 924 472 985T604 1088T809 1130Q899 1130 953 1101T1008 1016Q1008 995 995 963Q987 943 987 934Q987 887 1087 887Z" />
<glyph unicode="[" glyph-name="bracketleft" horiz-adv-x="555" d="M-254 -238L934 1118H1184L1174 1104H979L-182 -223H72L61 -238H-254Z" />
<glyph unicode="\" glyph-name="backslash" horiz-adv-x="319" d="M-119 -165L-162 -164L467 897L512 896L-119 -165Z" />
<glyph unicode="]" glyph-name="bracketright" horiz-adv-x="555" d="M1036 1118L-152 -238H-401L-391 -223H-197L965 1104H711L721 1118H1036Z" />
<glyph unicode="^" glyph-name="asciicircum" horiz-adv-x="512" d="M303 739L559 309H502L293 662L84 309H27L285 739H303Z" />
<glyph unicode="_" glyph-name="underscore" horiz-adv-x="1024" d="M1040 -154V-256H-16V-154H1040Z" />
<glyph unicode="`" glyph-name="grave" horiz-adv-x="682" d="M606 602H594Q523 693 500 784H592Q587 675 606 602Z" />
<glyph unicode="a" glyph-name="a" horiz-adv-x="532" d="M281 385Q221 385 148 326T20 192T-35 86Q-35 71 -25 61T0 51Q41 51 118 108T257 237T319 350Q319 385 281 385ZM545 262L494 219Q374 119 317 78T215 37Q186 37 186 70Q186 105 213 168Q70 37 2 37Q-28
37 -47 60T-66 129Q-66 180 -36 229T44 317T157 377T279 399Q308 399 321 389T336 354Q335 349 335 345T333 332T330 319L393 393L477 399L451 367Q419 329 399 305T365 264Q209 95 209 66Q209 51 223 51Q242 51 280 73T365 133T474 220T545 279V262Z" />
<glyph unicode="b" glyph-name="b" horiz-adv-x="492" d="M436 659L670 920H756L111 203Q42 126 28 89T41 51Q117 51 200 104T339 226T395 336Q395 391 426 391Q438 391 438 379Q438 313 352 213Q406 211 433 223T504 283V266Q462 219 431 208T340 201Q265 117
185 77T39 37Q-6 37 -6 80Q-6 117 12 155T76 252Q87 268 113 297T183 377T265 469T305 514L-12 242V258L20 287Q112 367 170 418T298 531T392 616T436 659Z" />
<glyph unicode="c" glyph-name="c" horiz-adv-x="406" d="M418 283V266Q181 37 23 37Q-19 37 -38 58T-57 135Q-57 183 -27 232T54 318T164 377T281 399Q307 399 323 386T340 350Q340 324 320 304T274 283Q244 283 244 309Q244 348 279 348Q299 348 303 330Q307
324 311 324Q316 324 321 332T326 350Q326 366 315 375T285 385Q232 385 157 328T26 198T-29 84Q-29 51 20 51Q111 51 197 107T418 283Z" />
<glyph unicode="d" glyph-name="d" horiz-adv-x="532" d="M287 385Q246 385 170 328T36 198T-23 84Q-23 51 8 51Q52 51 129 108T267 238T328 348Q328 385 287 385ZM330 303L870 920H952L322 201Q301 177 276 147T240 100T224 67T238 51Q263 51 361 128T545 283V266Q427
163 347 100T229 37Q203 37 203 68Q203 108 231 172Q231 173 230 174T227 176Q88 37 8 37Q-49 37 -49 131Q-49 205 7 267T145 364T291 399Q342 399 342 356Q342 326 330 303Z" />
<glyph unicode="e" glyph-name="e" horiz-adv-x="406" d="M63 238Q146 238 203 259T289 309T319 356Q319 385 285 385Q240 385 180 346T63 238ZM418 283V266Q306 154 213 96T25 37Q-59 37 -59 133Q-59 213 1 273T143 366T276 399Q305 399 321 386T338 350Q338
316 301 288T198 241T43 219Q-33 133 -33 88Q-33 72 -17 62T25 51Q186 51 418 283Z" />
<glyph unicode="f" glyph-name="f" horiz-adv-x="406" d="M-12 250V268Q-10 270 19 289T51 311Q52 342 68 368T102 395Q129 395 121 356Q254 423 268 430L508 709Q770 1016 893 1016Q916 1016 932 1002T948 965Q948 904 869 816T648 629T336 446L121 188Q160 168
193 168Q265 168 308 194T418 283V266Q354 202 308 179T195 156Q151 156 111 176L-371 -401H-451L-266 -188Q-218 -132 -153 -45T-41 112T49 256L47 289Q32 280 18 271T-12 250ZM240 401Q197 381 119 338Q118 329 112 318T100 298T84 276Q68 257 68 248Q71 234
86 219Q96 233 163 310T240 401ZM457 592L360 475Q473 532 574 597T758 732T887 861T934 963Q934 981 923 991T893 1001Q827 1001 722 893T457 592ZM74 205L55 238Q52 233 20 183T-34 100T-82 25L74 205Z" />
<glyph unicode="g" glyph-name="g" horiz-adv-x="532" d="M322 346Q322 362 309 371T276 381Q220 381 147 324T19 193T-35 84Q-35 72 -23 63T4 53Q44 53 121 110T260 238T322 346ZM-23 -104Q-209 -184 -297 -230T-444 -340Q-494 -396 -494 -436Q-494 -457 -479
-469T-440 -481Q-392 -481 -333 -440T-190 -309Q-66 -164 -23 -104ZM-4 -82L145 106Q128 96 117 88Q45 39 4 39Q-66 39 -66 131Q-66 187 -32 236T57 320T169 375T276 395Q336 395 336 352Q336 340 328 315L397 395H481L109 -29Q203 17 303 90T545 283V266Q448 182
379 128T237 27T86 -55Q-42 -195 -128 -281T-272 -414T-369 -478T-442 -496Q-472 -496 -490 -479T-508 -436Q-508 -394 -466 -344T-346 -245T-164 -152L-18 -90L-4 -82Z" />
<glyph unicode="h" glyph-name="h" horiz-adv-x="662" d="M698 920H780L115 166Q210 246 327 322T485 399Q530 399 530 350Q530 293 493 249T393 158Q315 101 315 72Q315 51 340 51Q388 51 469 108T674 279V262L645 236Q545 144 466 91T340 37Q295 37 295 80Q295
162 383 238Q450 297 475 323T500 369Q500 374 495 379T481 385Q442 385 262 256Q114 149 4 37H-82L449 641L-12 242V258L274 510Q395 615 459 673T573 783T698 920Z" />
<glyph unicode="i" glyph-name="i" horiz-adv-x="319" d="M336 602Q358 602 358 575Q358 559 349 549T326 539Q299 539 299 563Q299 577 310 589T336 602ZM-10 244L-12 260Q64 329 166 391H256L20 127Q-5 99 -12 75T0 51Q50 51 149 125T332 281V264Q235 171 145
104T-2 37Q-35 37 -35 72Q-35 176 127 338Q136 347 143 355T158 371Q68 317 -10 244Z" />
<glyph unicode="j" glyph-name="j" horiz-adv-x="362" d="M362 600Q387 600 387 575Q387 561 377 549T354 537Q344 537 335 544T326 559Q326 574 337 587T362 600ZM-301 -268L-211 -152Q-176 -105 -133 -41Q-277 -120 -366 -177T-519 -300T-584 -424Q-584 -473
-539 -473Q-461 -473 -301 -268ZM-12 246V262Q59 326 102 353T190 391H281L-20 27Q66 61 176 133T373 279V262Q179 94 -43 2L-63 -23Q-248 -244 -337 -340T-465 -461T-539 -487Q-566 -487 -582 -471T-598 -426Q-598 -340 -455 -227Q-399 -181 -311 -127T-113 -18L186
377Q148 368 106 339T-12 246Z" />
<glyph unicode="k" glyph-name="k" horiz-adv-x="662" d="M266 498L440 647Q505 702 576 779T700 920H784L4 47H-80L436 625Q404 596 369 566T308 514T240 455Q142 371 120 352T20 268L-12 242V258L94 350Q93 350 266 498ZM672 283V266L623 223Q503 119 437 78T313
37Q266 37 266 90Q266 141 313 199Q334 224 334 242Q334 254 322 254Q319 254 305 252T287 250Q244 250 244 266Q244 279 270 279Q287 279 328 266Q372 285 426 330Q475 370 506 384T575 399Q631 399 631 367Q631 344 608 344Q582 344 582 367L586 385Q586 389
580 389Q530 389 465 330Q427 294 344 258Q365 228 365 197Q365 152 326 113Q295 77 295 68Q295 51 317 51Q366 51 446 104T672 283Z" />
<glyph unicode="l" glyph-name="l" horiz-adv-x="319" d="M616 866L666 920H743L113 215Q0 91 0 70Q0 51 20 51Q55 51 100 80T221 179T334 279V262Q198 137 135 87T20 37Q2 37 -10 50T-23 82Q-23 133 27 201T162 360Q168 368 198 402T256 471Q187 419 -10 244V260L274
506Q326 550 616 866Z" />
<glyph unicode="m" glyph-name="m" horiz-adv-x="938" d="M-12 242V260Q62 327 112 363T201 399Q233 399 233 356Q233 320 212 287T141 190Q281 305 351 352T473 399Q510 399 510 365Q510 297 410 178L438 199Q505 248 566 293T683 368T774 399Q790 399 799 387T809
350Q809 304 779 260T674 160Q644 138 617 109T590 70Q590 51 618 51Q662 51 734 104T950 279V262Q814 145 742 91T614 37Q575 37 575 76Q575 119 604 163T702 272Q782 347 782 367Q782 385 766 385Q740 385 653 330T461 193T287 47H203L358 217Q374 234 406 268T462
329T485 367Q485 372 481 377T467 383Q411 383 300 296T39 74L10 47H-76L135 283Q207 357 207 371Q207 385 195 385Q178 385 144 364T70 310T-12 242Z" />
<glyph unicode="n" glyph-name="n" horiz-adv-x="662" d="M-14 242V258Q138 399 199 399Q233 399 233 356Q233 322 212 289T127 174Q251 277 342 338T498 399Q532 399 532 352Q532 306 500 261T395 162Q317 103 317 78Q317 68 326 60T346 51Q381 51 438 89T564
187T674 283V266Q613 209 555 160T440 74T344 37Q320 37 310 53T299 86Q299 124 329 171T412 264Q473 318 496 350T483 383Q436 383 341 320T163 186T6 47H-72L61 197Q207 360 207 375Q207 385 195 385Q151 385 -14 242Z" />
<glyph unicode="o" glyph-name="o" horiz-adv-x="426" d="M279 385Q223 385 151 322T21 182T-37 88Q-37 72 -23 62T14 51Q67 51 141 103T273 227T330 340Q330 360 316 372T279 385ZM438 283V266Q382 199 313 199Q306 200 299 201T283 203Q123 37 6 37Q-16 37 -34
48T-62 79T-72 123Q-72 190 -13 254T129 358T276 399Q344 399 344 336Q344 285 295 217Q305 213 317 213Q380 213 438 283Z" />
<glyph unicode="p" glyph-name="p" horiz-adv-x="598" d="M393 627H444L70 176Q159 247 214 288T330 364T432 399Q469 399 469 348Q469 304 440 263T342 168Q254 100 254 74Q254 51 283 51Q334 51 610 283V266Q508 179 413 108T281 37Q233 40 233 84Q233 153 360
268Q442 342 442 365Q442 385 422 385Q394 385 301 326T112 188T-20 68L-422 -403H-510L330 547Q290 509 -12 242V258Q35 298 201 448T393 627Z" />
<glyph unicode="q" glyph-name="q" horiz-adv-x="492" d="M287 385Q240 385 163 328T26 198T-33 80Q-33 67 -24 59T0 51Q39 51 117 108T258 237T322 350Q322 363 312 374T287 385ZM-203 -403H-289L201 152Q77 37 2 37Q-59 37 -59 131Q-59 196 -5 259T130 360T283
399Q336 399 336 356Q336 335 319 297L420 399H459L12 -147Q47 -116 127 -46T266 77T413 205T504 283V266Q242 37 16 -168Q-16 -197 -58 -243T-203 -403Z" />
<glyph unicode="r" glyph-name="r" horiz-adv-x="406" d="M-12 258Q33 294 77 331T166 401Q158 432 174 456T213 481Q226 481 236 474T246 455Q246 442 238 434T217 426Q205 426 184 446Q178 438 178 424Q177 412 187 402T211 391Q220 391 238 395Q258 399 262
399Q270 399 275 384T281 348Q281 330 257 301T172 204T89 109T66 66Q66 51 86 51Q114 51 205 116T418 283V266Q149 37 78 37Q51 37 51 70Q51 117 69 159T133 252L250 381Q229 373 203 374T170 389Q37 279 -12 242V258Z" />
<glyph unicode="s" glyph-name="s" horiz-adv-x="426" d="M-12 258L197 438Q221 467 241 491T270 516Q278 516 284 512T291 498Q291 479 236 451Q268 403 282 367T299 276Q296 242 291 219Q327 210 356 220T438 283V266Q398 216 364 204T285 205Q261 151 207 113T96
56T-2 37Q-41 37 -65 52T-90 96Q-90 121 -76 136T-33 152Q-15 152 -4 143T8 117Q8 104 -4 94T-31 84Q-50 84 -59 115Q-72 106 -72 88Q-72 77 -52 64T-4 51Q49 51 108 96T206 211T246 344Q246 390 217 438L-12 242V258Z" />
<glyph unicode="t" glyph-name="t" horiz-adv-x="385" d="M330 539L496 727H582L416 539H543L532 522H403L160 246Q120 202 72 140T23 72Q23 51 45 51Q127 51 397 283V266L344 219Q137 37 43 37Q20 37 7 50T-6 80Q-6 120 50 213T272 471Q170 403 -12 242V258Q49
316 139 389T315 522H242L256 539H330Z" />
<glyph unicode="u" glyph-name="u" horiz-adv-x="598" d="M-12 242V258Q54 322 172 391H256L33 137Q-23 73 -23 63Q-23 53 -6 53Q49 53 174 150T451 391H530L297 125Q293 120 281 106T262 81T256 61Q256 51 272 51Q309 51 411 117T610 283V266Q511 167 413 102T268
37Q233 37 233 72Q233 105 263 155T358 283L377 305L340 272Q219 164 132 101T-6 37Q-43 37 -43 80Q-43 108 -27 141T17 211T76 281T139 352L88 322Q19 271 -12 242Z" />
<glyph unicode="v" glyph-name="v" horiz-adv-x="512" d="M-12 242V258Q6 274 35 298T96 346T156 384T203 399Q218 399 227 387T236 354Q236 276 109 164Q33 99 33 68Q33 51 63 51Q114 51 174 83T289 167T376 265T410 338Q413 399 432 399Q451 399 451 373Q451
345 429 308T360 217Q376 207 395 207Q448 207 524 283V266Q450 195 399 195Q375 195 352 207Q275 128 205 83T53 37Q33 37 19 51T4 88Q4 133 35 177T141 279Q221 337 221 371Q221 385 201 385Q172 385 136 359T-12 242Z" />
<glyph unicode="w" glyph-name="w" horiz-adv-x="768" d="M567 391L305 96Q293 82 293 70Q293 51 313 51Q385 51 488 120T639 246Q670 281 684 342Q696 399 715 399Q729 399 729 383Q729 310 629 211Q671 202 706 217T780 283V266Q749 221 711 205T614 199Q440
37 307 37Q266 37 266 76Q266 149 416 307Q265 170 170 104T20 37Q-12 37 -12 76Q-12 151 133 313Q161 341 178 365Q81 321 -12 242V258Q43 302 90 335T203 391H287L47 115Q16 76 16 68Q16 63 21 57T31 51Q69 51 162 118T330 254Q365 288 409 326T483 391H567Z"
/>
<glyph unicode="x" glyph-name="x" horiz-adv-x="641" d="M-12 242V258Q68 328 132 363T262 399Q317 399 317 352Q317 336 309 295Q362 348 401 373T494 399Q519 399 537 385T555 348Q555 299 512 297Q481 297 481 328Q481 340 489 347T508 354Q524 354 537 336Q544
361 531 373T492 385Q459 385 422 360T330 274Q265 202 233 158T201 86Q201 51 246 51Q322 51 425 113T653 283V266Q581 198 505 146T361 65T244 37Q182 37 182 90Q182 122 203 178L174 152Q158 137 124 106T54 56T-25 37Q-92 37 -92 92Q-92 147 -39 147Q-22 147
-12 138T-2 115Q-2 104 -12 94T-35 84Q-69 84 -72 117Q-89 51 -23 51Q11 51 39 65T92 101T143 153T174 190Q256 287 277 313T299 358Q299 385 264 385Q198 385 135 348T-12 242Z" />
<glyph unicode="y" glyph-name="y" horiz-adv-x="662" d="M141 -49Q-69 -154 -214 -261T-360 -440Q-360 -458 -348 -469T-317 -481Q-282 -481 -238 -457T-140 -380T-12 -242Q27 -194 72 -139T141 -49ZM-12 242V258Q68 327 119 363T209 399Q240 399 240 358Q240
271 121 166Q35 90 35 66Q35 51 53 51Q90 51 181 112T371 255T524 391H600L279 25Q391 70 471 123T674 283V266Q560 161 474 105T256 0L238 -20Q29 -254 -100 -375T-313 -496Q-375 -496 -375 -438Q-375 -396 -319 -333T-143 -192T160 -29Q258 97 414 268Q308 186
274 160T193 102T110 53T45 37Q28 37 17 48T6 78Q6 111 19 141T60 201T137 268Q223 332 223 367Q223 385 203 385Q169 385 115 344T-12 242Z" />
<glyph unicode="z" glyph-name="z" horiz-adv-x="432" d="M-12 258L104 354Q98 380 114 399T156 418Q184 418 184 391Q184 378 177 370T158 362Q133 362 123 375Q119 361 133 350T178 338Q250 338 281 362L315 391Q365 434 385 434Q399 434 399 424Q399 375 266
340L51 158Q104 174 141 174Q195 174 195 131Q195 113 172 90Q163 81 162 71T170 61Q190 61 276 131T444 283V266Q210 37 141 37Q127 37 116 46T104 74Q104 98 137 127Q156 138 160 149T131 160Q82 160 -2 109Q-16 94 -30 77T-57 48T-82 37Q-102 37 -102 51Q-102
79 12 141L240 332Q193 324 172 324Q127 324 113 348L-12 242V258Z" />
<glyph unicode="{" glyph-name="braceleft" horiz-adv-x="748" d="M203 315V334Q237 339 277 366T345 437T373 532Q373 574 356 682Q340 792 340 805Q340 928 405 1018T573 1130V1116Q523 1107 485 1071T429 991T410 905Q410 894 412 873T418 825T428 760Q446
652 446 621Q446 501 372 424T231 326Q269 315 319 279T408 175T446 14Q446 -20 428 -123Q410 -251 410 -258Q410 -325 449 -384T573 -469V-483Q463 -451 402 -359T340 -156Q340 -127 356 -33Q373 56 373 100Q373 138 356 177T314 244T259 292T203 315Z" />
<glyph unicode="|" glyph-name="bar" horiz-adv-x="1004" d="M483 920H520V-403H483V920Z" />
<glyph unicode="}" glyph-name="braceright" horiz-adv-x="748" d="M573 315Q540 310 500 278T431 198T403 100Q403 56 420 -33Q436 -127 436 -156Q436 -269 375 -360T203 -483V-469Q288 -443 327 -385T366 -258Q366 -251 348 -123Q330 -20 330 14Q330 107 368
174T456 278T545 326Q478 346 404 423T330 621Q330 652 348 760Q366 897 366 905Q366 946 348 990T291 1071T203 1116V1130Q269 1117 322 1071T406 955T436 805Q436 792 420 682Q403 574 403 532Q403 482 430 438T498 366T573 334V315Z" />
<glyph unicode="~" glyph-name="asciitilde" horiz-adv-x="874" d="M733 399H758Q756 348 738 314T686 261T612 242Q590 242 562 249T465 285Q366 327 326 340T256 354Q161 354 141 242H117Q122 302 141 336Q160 367 190 383T252 399Q282 399 316 390T440 342Q537
303 563 295T618 287Q661 287 694 312T733 399Z" />
</font>
</defs>
</svg>
